<?xml version="1.0" standalone="no"?>
<!DOCTYPE svg PUBLIC "-//W3C//DTD SVG 20010904//EN"
 "http://www.w3.org/TR/2001/REC-SVG-20010904/DTD/svg10.dtd">
<svg version="1.0" xmlns="http://www.w3.org/2000/svg"
 width="332.000000pt" height="332.000000pt" viewBox="0 0 332.000000 332.000000"
 preserveAspectRatio="xMidYMid meet">
<metadata>
Created by potrace 1.14, written by Peter Selinger 2001-2017
</metadata>
<g transform="translate(0.000000,332.000000) scale(0.100000,-0.100000)"
fill="#000000" stroke="none">
<path d="M1550 3291 c-100 -37 -163 -70 -235 -123 -51 -38 -105 -105 -355
-444 -162 -219 -346 -469 -409 -554 -63 -85 -152 -207 -199 -270 -47 -63 -97
-131 -112 -150 -52 -67 -54 -78 -28 -140 28 -65 121 -154 376 -358 84 -67 105
-143 62 -224 -45 -86 -81 -110 -436 -292 -103 -52 -133 -79 -140 -127 -7 -42
18 -82 141 -229 208 -247 299 -346 334 -363 47 -23 102 -15 161 23 106 68 413
191 530 213 14 3 36 8 50 11 187 44 398 55 565 30 286 -42 527 -124 773 -263
42 -24 61 -29 99 -26 43 4 53 10 108 67 120 125 377 433 404 485 37 71 -14
122 -225 228 -265 132 -319 173 -356 270 -31 81 -6 132 113 229 260 212 325
278 347 358 10 36 8 40 -46 115 -89 122 -539 733 -592 803 -10 14 -71 97 -136
185 -64 88 -126 171 -136 185 -11 14 -50 65 -86 114 -87 116 -179 182 -340
243 -95 35 -143 36 -232 4z m163 -1211 c18 -25 163 -225 322 -443 160 -219
295 -407 302 -420 31 -60 15 -157 -26 -157 -12 0 -58 11 -103 24 -46 13 -112
27 -148 30 -36 4 -87 9 -115 13 -71 8 -442 8 -560 0 -148 -11 -252 -28 -311
-53 -43 -18 -78 -18 -94 1 -14 17 -17 115 -4 137 8 14 63 89 314 432 58 78
164 224 235 323 100 139 133 178 143 170 7 -5 27 -31 45 -57z"/>
</g>
</svg>
